HIERARCHY
ROOT reference
{
  OFFSET 0 0 0
  CHANNELS 6 Xposition Yposition Zposition Zrotation Xrotation Yrotation
  JOINT Hips
  {
    OFFSET 12.0226 89.8381 99.6105
    CHANNELS 6 Xposition Yposition Zposition Zrotation Xrotation Yrotation
    JOINT Spine
    {
      OFFSET 0 7.57377 0
      CHANNELS 6 Xposition Yposition Zposition Zrotation Xrotation Yrotation
      JOINT Spine1
      {
        OFFSET 0 21.6353 0
        CHANNELS 6 Xposition Yposition Zposition Zrotation Xrotation Yrotation
        JOINT Neck
        {
          OFFSET 0 21.5464 1.95876
          CHANNELS 6 Xposition Yposition Zposition Zrotation Xrotation Yrotation
          JOINT Head
          {
            OFFSET 0 12.9308 -1.84726
            CHANNELS 6 Xposition Yposition Zposition Zrotation Xrotation Yrotation
            End Site
            {
              OFFSET 0 23.0907 0
            }
          }
        }
        JOINT LeftShoulder
        {
          OFFSET 3.70822 19.5981 -0.368577
          CHANNELS 6 Xposition Yposition Zposition Zrotation Xrotation Yrotation
          JOINT LeftArm
          {
            OFFSET 11.1726 0 0
            CHANNELS 6 Xposition Yposition Zposition Zrotation Xrotation Yrotation
            JOINT LeftForeArm
            {
              OFFSET 28.6421 0 0
              CHANNELS 6 Xposition Yposition Zposition Zrotation Xrotation Yrotation
              JOINT LeftHand
              {
                OFFSET 23.9346 0 0
                CHANNELS 6 Xposition Yposition Zposition Zrotation Xrotation Yrotation
                End Site
                {
                  OFFSET 13.8545 0 0
                }
              }
            }
          }
        }
        JOINT RightShoulder
        {
          OFFSET -3.63664 19.5981 -0.368577
          CHANNELS 6 Xposition Yposition Zposition Zrotation Xrotation Yrotation
          JOINT RightArm
          {
            OFFSET -11.1726 0 0
            CHANNELS 6 Xposition Yposition Zposition Zrotation Xrotation Yrotation
            JOINT RightForeArm
            {
              OFFSET -28.6421 0 0
              CHANNELS 6 Xposition Yposition Zposition Zrotation Xrotation Yrotation
              JOINT RightHand
              {
                OFFSET -23.9346 0 0
                CHANNELS 6 Xposition Yposition Zposition Zrotation Xrotation Yrotation
                End Site
                {
                  OFFSET -13.8545 0 0
                }
              }
            }
          }
        }
      }
    }
    JOINT LeftUpLeg
    {
      OFFSET 9.2363 0 0
      CHANNELS 6 Xposition Yposition Zposition Zrotation Xrotation Yrotation
      JOINT LeftLeg
      {
        OFFSET 0 -40.7061 0
        CHANNELS 6 Xposition Yposition Zposition Zrotation Xrotation Yrotation
        JOINT LeftFoot
        {
          OFFSET 0 -40.9975 0
          CHANNELS 6 Xposition Yposition Zposition Zrotation Xrotation Yrotation
          JOINT LeftToeBase
          {
            OFFSET 0 -6.00359 13.8545
            CHANNELS 6 Xposition Yposition Zposition Zrotation Xrotation Yrotation
            End Site
            {
              OFFSET 0 0 3.69452
            }
          }
        }
      }
    }
    JOINT RightUpLeg
    {
      OFFSET -9.2363 0 0
      CHANNELS 6 Xposition Yposition Zposition Zrotation Xrotation Yrotation
      JOINT RightLeg
      {
        OFFSET 0 -40.7061 0
        CHANNELS 6 Xposition Yposition Zposition Zrotation Xrotation Yrotation
        JOINT RightFoot
        {
          OFFSET 0 -40.9975 0
          CHANNELS 6 Xposition Yposition Zposition Zrotation Xrotation Yrotation
          JOINT RightToeBase
          {
            OFFSET 0 -6.00359 13.8545
            CHANNELS 6 Xposition Yposition Zposition Zrotation Xrotation Yrotation
            End Site
            {
              OFFSET 0 0 3.69452
            }
          }
        }
      }
    }
  }
}
MOTION
Frames:	9
Frame Time:	0.004
0 0 0 0 0 -0 -11.1034 82.9936 -76.3505 -3.90271 -4.53497 2.99569 -1.77636e-015 7.57377 0 -7.66014 9.17336 0.403773 0 21.6353 -1.42109e-014 3.49953 -1.53937 -0.16455 -3.55271e-015 21.5464 1.95876 5.84732 13.9233 7.9529 0 12.9308 -1.84726 -0.98503 16.4305 8.15766 3.70822 19.5981 -0.368577 6.64852 8.03832 -7.49051 11.1726 0 0 -72.6809 24.2758 -0.891538 28.6421 3.55271e-015 1.42109e-014 25.1066 -16.4964 -25.1811 23.9346 0 -7.10543e-015 27.372 -11.3009 -1.43249 -3.63664 19.5981 -0.368577 1.27526 7.70181 -16.0599 -11.1726 -1.42109e-014 -1.42109e-014 63.4336 28.78 10.1278 -28.6421 7.10543e-015 0 -18.6225 -7.77935 21.088 -23.9346 1.42109e-014 -1.42109e-014 -25.6442 -4.1728 -0.567716 9.2363 0 -1.42109e-014 6.15423 -26.0779 13.3987 0 -40.7061 -1.06581e-014 10.6359 54.1271 -4.19726 -3.55271e-015 -40.9975 1.42109e-014 -10.0313 10.4455 -21.0791 -4.44089e-016 -6.00359 13.8545 -4.37326e-015 0 -1.98785e-015 -9.2363 0 0 -3.93117 -17.2525 -4.66703 -3.55271e-015 -40.7061 -7.10543e-015 12.7024 66.6595 3.31207 3.55271e-015 -40.9975 0 6.89629 -5.17154 -2.27381 0 -6.00359 13.8545 7.95139e-016 1.59028e-014 -3.57812e-015 
0 0 0 0 0 -0 -11.0793 83.1024 -76.2025 -3.95478 -4.57663 3.07658 0 7.57377 -1.42109e-014 -7.61261 9.19005 0.355571 3.55271e-015 21.6353 0 3.52237 -1.52949 -0.210227 -3.55271e-015 21.5464 1.95876 5.82638 13.9338 7.94258 -1.77636e-015 12.9308 -1.84726 -0.928954 16.4326 8.14781 3.70822 19.5981 -0.368577 6.6547 8.02354 -7.4606 11.1726 -1.42109e-014 -1.42109e-014 -72.7106 24.595 -0.954243 28.6421 0 0 25.2598 -16.6094 -24.9624 23.9346 -1.42109e-014 -7.10543e-015 27.2682 -11.427 -1.41847 -3.63664 19.5981 -0.368577 1.24069 7.63845 -16.0364 -11.1726 0 -1.42109e-014 63.5275 28.7605 10.0009 -28.6421 -7.10543e-015 -1.42109e-014 -18.523 -7.77382 21.0683 -23.9346 1.42109e-014 1.42109e-014 -25.8329 -4.18809 -0.569753 9.2363 -1.42109e-014 0 6.1797 -25.7985 13.4543 0 -40.7061 3.55271e-015 10.6096 53.8695 -4.30169 0 -40.9975 0 -9.90568 10.391 -21.0444 -8.88178e-016 -6.00359 13.8545 5.56597e-015 -3.18055e-015 -7.95139e-016 -9.2363 0 0 -3.96829 -17.4977 -4.75279 0 -40.7061 0 13.0357 66.2574 3.22159 -3.55271e-015 -40.9975 -1.42109e-014 7.70655 -5.03069 -2.64843 -3.55271e-015 -6.00359 13.8545 -2.5842e-015 -9.54166e-015 9.93923e-016 
0 0 0 0 0 -0 -11.0458 83.2212 -76.0703 -3.97797 -4.55367 3.16348 0 7.57377 1.42109e-014 -7.5751 9.16923 0.306685 3.55271e-015 21.6353 0 3.51429 -1.56086 -0.253822 3.55271e-015 21.5464 1.95876 5.883 14.0191 7.90147 0 12.9308 -1.84726 -1.03087 16.3477 8.10792 3.70822 19.5981 -0.368577 6.68208 7.98916 -7.49407 11.1726 -1.42109e-014 0 -72.7324 24.2339 -0.956325 28.6421 -3.55271e-015 0 25.0998 -16.4014 -25.1332 23.9346 0 0 27.231 -11.222 -1.46385 -3.63664 19.5981 -0.368577 1.29864 7.64466 -16.0338 -11.1726 0 0 63.5096 28.9649 9.9365 -28.6421 0 0 -18.643 -7.86721 21.0105 -23.9346 0 -1.42109e-014 -25.4099 -4.24314 -0.694735 9.2363 1.42109e-014 0 6.1537 -25.5702 13.4331 0 -40.7061 3.55271e-015 10.48 53.5625 -4.14229 0 -40.9975 -1.42109e-014 -9.81685 10.4393 -21.1126 4.44089e-016 -6.00359 13.8545 7.95139e-016 0 7.95139e-016 -9.2363 -1.42109e-014 1.42109e-014 -3.98635 -17.7665 -4.72988 -3.55271e-015 -40.7061 0 13.2633 65.782 2.9069 0 -40.9975 -1.42109e-014 7.85439 -5.09784 -2.65466 -3.55271e-015 -6.00359 13.8545 7.95139e-016 -9.54166e-015 2.98177e-015 
0 0 0 0 0 -0 -11.021 83.3323 -75.9324 -4.02683 -4.57057 3.24854 -3.55271e-015 7.57377 -1.42109e-014 -7.52169 9.18664 0.266557 0 21.6353 0 3.54389 -1.59653 -0.289306 -3.55271e-015 21.5464 1.95876 5.83486 14.0356 7.88761 0 12.9308 -1.84726 -0.960251 16.3763 8.09551 3.70822 19.5981 -0.368577 6.63857 8.04361 -7.49924 11.1726 4.26326e-014 0 -72.6952 24.5529 -1.02081 28.6421 0 -1.42109e-014 25.2577 -16.5388 -24.9746 23.9346 0 0 27.1768 -11.3442 -1.38876 -3.63664 19.5981 -0.368577 1.23502 7.65024 -16.0728 -11.1726 1.42109e-014 -1.42109e-014 63.6523 28.8087 9.87281 -28.6421 0 0 -18.5808 -7.74641 21.0276 -23.9346 0 0 -25.3991 -4.14591 -0.626361 9.2363 1.42109e-014 0 6.16898 -25.3161 13.4419 0 -40.7061 7.10543e-015 10.3977 53.2876 -4.13544 3.55271e-015 -40.9975 -1.42109e-014 -9.7584 10.4582 -21.0953 -4.44089e-016 -6.00359 13.8545 1.98785e-016 3.18055e-015 -3.97569e-016 -9.2363 1.42109e-014 0 -3.98368 -18.0101 -5.03211 -3.55271e-015 -40.7061 -7.10543e-015 12.7337 65.4791 3.69797 0 -40.9975 -1.42109e-014 8.01168 -5.16546 -2.92834 3.55271e-015 -6.00359 13.8545 3.18055e-015 9.54166e-015 -1.19271e-015 
0 0 0 0 0 -0 -10.9954 83.4487 -75.7864 -4.0735 -4.59842 3.33051 -1.77636e-015 7.57377 0 -7.48257 9.20226 0.238949 -3.55271e-015 21.6353 0 3.58079 -1.60955 -0.313879 0 21.5464 1.95876 5.78614 14.0615 7.8561 -1.77636e-015 12.9308 -1.84726 -0.857407 16.3682 8.06481 3.70822 19.5981 -0.368577 6.66107 8.07406 -7.54211 11.1726 1.42109e-014 1.42109e-014 -72.6911 24.346 -1.10248 28.6421 7.10543e-015 0 25.1738 -16.4159 -25.0705 23.9346 0 0 27.1431 -11.2187 -1.40349 -3.63664 19.5981 -0.368577 1.20958 7.63767 -16.0865 -11.1726 1.42109e-014 0 63.7363 28.7369 9.75822 -28.6421 7.10543e-015 0 -18.5347 -7.68077 21.0577 -23.9346 1.42109e-014 1.42109e-014 -25.4852 -4.08497 -0.617737 9.2363 0 0 6.18726 -25.0235 13.4546 -3.55271e-015 -40.7061 1.06581e-014 10.2838 52.9847 -4.11974 0 -40.9975 -1.42109e-014 -9.7317 10.5121 -21.0216 8.88178e-016 -6.00359 13.8545 3.18055e-015 0 1.59028e-015 -9.2363 0 -1.42109e-014 -3.95937 -18.2339 -5.13084 3.55271e-015 -40.7061 0 12.5909 65.0209 3.85478 0 -40.9975 1.42109e-014 8.75968 -5.32622 -2.90556 0 -6.00359 13.8545 -1.19271e-015 -3.18055e-015 -1.98785e-016 
0 0 0 0 0 -0 -10.9716 83.5623 -75.6403 -4.14134 -4.62255 3.41016 3.55271e-015 7.57377 0 -7.40433 9.20209 0.192017 0 21.6353 0 3.59501 -1.6117 -0.354291 0 21.5464 1.95876 5.77625 14.0822 7.84522 -1.77636e-015 12.9308 -1.84726 -0.829561 16.3612 8.05467 3.70822 19.5981 -0.368577 6.67061 8.04187 -7.54025 11.1726 -1.42109e-014 0 -72.7463 24.5738 -1.07607 28.6421 0 0 25.2859 -16.482 -24.9809 23.9346 -1.42109e-014 0 27.181 -11.2685 -1.34725 -3.63664 19.5981 -0.368577 1.19018 7.62678 -16.0873 -11.1726 1.42109e-014 1.42109e-014 63.8185 28.6965 9.67296 -28.6421 7.10543e-015 0 -18.5225 -7.64582 21.0353 -23.9346 2.84217e-014 0 -25.475 -4.06784 -0.564935 9.2363 -1.42109e-014 0 6.22409 -24.7405 13.4925 1.77636e-015 -40.7061 1.06581e-014 10.2296 52.6695 -3.97136 0 -40.9975 0 -9.63183 10.5443 -21.271 -4.44089e-016 -6.00359 13.8545 -1.39149e-015 -6.36111e-015 -3.97569e-016 -9.2363 -1.42109e-014 0 -3.92806 -18.4231 -5.22332 0 -40.7061 -7.10543e-015 12.5541 64.5046 3.93672 -1.77636e-015 -40.9975 -1.42109e-014 8.89936 -5.30474 -3.09946 3.55271e-015 -6.00359 13.8545 9.93923e-016 3.18055e-015 -7.95139e-016 
0 0 0 0 0 -0 -10.9375 83.6866 -75.5105 -4.15983 -4.60035 3.4937 -1.77636e-015 7.57377 0 -7.3707 9.17167 0.157367 -3.55271e-015 21.6353 -1.42109e-014 3.60487 -1.60253 -0.384262 0 21.5464 1.95876 5.79871 14.0653 7.80115 0 12.9308 -1.84726 -0.865425 16.3952 8.00777 3.70822 19.5981 -0.368577 6.67906 8.03377 -7.53435 11.1726 -2.84217e-014 0 -72.7207 24.3506 -1.15564 28.6421 0 1.42109e-014 25.1792 -16.3208 -25.0875 23.9346 2.84217e-014 7.10543e-015 27.0834 -11.101 -1.34198 -3.63664 19.5981 -0.368577 1.32887 7.7616 -16.1664 -11.1726 0 1.42109e-014 63.6275 28.8298 9.83906 -28.6421 -7.10543e-015 0 -18.5408 -7.73841 20.9515 -23.9346 0 0 -25.6377 -4.15713 -0.625485 9.2363 1.42109e-014 0 6.18872 -24.5024 13.485 -1.77636e-015 -40.7061 7.10543e-015 10.1273 52.3363 -3.87052 0 -40.9975 0 -9.57509 10.6307 -21.2615 8.88178e-016 -6.00359 13.8545 2.20695e-031 -6.36111e-015 1.98785e-015 -9.2363 1.42109e-014 0 -3.93673 -18.6404 -5.27809 0 -40.7061 0 12.5065 63.9179 3.78475 -1.77636e-015 -40.9975 0 9.11299 -5.53112 -2.86577 0 -6.00359 13.8545 -9.93923e-016 -3.18055e-015 -5.96354e-016 
0 0 0 0 0 -0 -10.9142 83.8115 -75.3719 -4.2053 -4.60684 3.58487 -1.77636e-015 7.57377 0 -7.3148 9.17714 0.11124 0 21.6353 0 3.61057 -1.63185 -0.42523 -3.55271e-015 21.5464 1.95876 5.77008 14.1111 7.78212 0 12.9308 -1.84726 -0.798872 16.3539 7.99051 3.70822 19.5981 -0.368577 6.69492 8.02032 -7.57001 11.1726 1.42109e-014 0 -72.7773 24.5069 -1.12757 28.6421 7.10543e-015 0 25.3094 -16.4043 -25.0145 23.9346 -7.10543e-015 -7.10543e-015 26.9625 -11.1828 -1.38811 -3.63664 19.5981 -0.368577 1.34878 7.7742 -16.1529 -11.1726 1.42109e-014 0 63.7171 28.9805 9.76364 -28.6421 0 -1.42109e-014 -18.7495 -7.80379 20.8047 -23.9346 0 0 -25.3399 -4.21441 -0.606357 9.2363 -1.42109e-014 0 6.18987 -24.2301 13.51 -1.77636e-015 -40.7061 -7.10543e-015 10.0814 51.985 -3.65361 0 -40.9975 1.42109e-014 -9.51008 10.7553 -21.4665 0 -6.00359 13.8545 5.96354e-016 -3.18055e-015 1.19271e-015 -9.2363 0 0 -3.92929 -18.8833 -5.56474 0 -40.7061 -7.10543e-015 12.0755 63.5036 4.6462 1.77636e-015 -40.9975 0 9.60079 -5.54747 -3.47047 0 -6.00359 13.8545 3.97569e-016 0 -1.59028e-015 
0 0 0 0 0 -0 -10.8931 83.9406 -75.2404 -4.27821 -4.57876 3.68318 0 7.57377 0 -7.25506 9.1734 0.061576 0 21.6353 0 3.67775 -1.70522 -0.466589 0 21.5464 1.95876 5.70737 14.1772 7.76953 0 12.9308 -1.84726 -0.745163 16.3208 7.98186 3.70822 19.5981 -0.368577 6.64112 8.0457 -7.60241 11.1726 0 -1.42109e-014 -72.7566 24.3983 -1.14076 28.6421 0 0 25.2846 -16.3401 -25.0716 23.9346 -1.42109e-014 0 26.9527 -11.1243 -1.45089 -3.63664 19.5981 -0.368577 1.35837 7.84348 -16.2064 -11.1726 0 0 63.7089 28.884 9.77661 -28.6421 -7.10543e-015 0 -18.6912 -7.7126 20.8145 -23.9346 -1.42109e-014 -1.42109e-014 -25.4048 -4.13052 -0.610996 9.2363 0 0 6.22289 -24.0014 13.5036 1.77636e-015 -40.7061 -3.55271e-015 9.98141 51.6429 -3.48297 3.55271e-015 -40.9975 0 -9.42631 10.8521 -21.5484 1.33227e-015 -6.00359 13.8545 -3.57812e-015 3.18055e-015 1.19271e-015 -9.2363 0 -1.42109e-014 -3.93037 -19.1504 -5.43141 -1.06581e-014 -40.7061 -7.10543e-015 12.6336 62.9052 4.09811 -1.77636e-015 -40.9975 0 9.81641 -5.50268 -3.5888 3.55271e-015 -6.00359 13.8545 -5.96354e-016 0 -1.59028e-015 
